<?xml version="1.0" encoding="UTF-8"?>
<svg width="300" height="300" version="1.1" viewBox="0 0 300 300" xmlns="http://www.w3.org/2000/svg">
 <g stroke-linejoin="round">
  <path d="m87.846 10.773c-25.031 0.42385 3.4419 23.086-19.516 32.723s-20.714-25.918-38.104-8.5352c-17.389 17.383 19.345 13.974 10.172 36.457-9.1732 22.483-33.634-4.1871-33.195 19.973 0.43914 24.16 23.916-3.3245 33.9 18.834 9.9846 22.158-26.85 19.996-8.8398 36.779 18.01 16.784 14.476-18.672 37.77-9.8184 23.294 8.8539-4.3376 32.465 20.693 32.041 25.031-0.42385-3.4438-23.086 19.514-32.723 22.958-9.6371 20.716 25.918 38.105 8.5352 17.389-17.383-19.347-13.974-10.174-36.457 9.1732-22.483 33.636 4.187 33.197-19.973-0.43914-24.16-23.918 3.3225-33.902-18.836-9.9846-22.158 26.852-19.994 8.8418-36.777-18.01-16.784-14.478 18.672-37.771 9.8184-23.294-8.8539 4.3395-32.465-20.691-32.041zm1.2734 59.227a18.571 20 0 0 1 18.736 19.76l0.00195 0.24023a18.571 20 0 0 1-18.516 20 18.571 20 0 0 1-18.627-19.879 18.571 20 0 0 1 18.404-20.121z" fill="#f00" stroke-width="1.774" style="paint-order:markers stroke fill">
  	<animateTransform
  		id="engrenagem1"
  		attributeName="transform"
  		type="rotate"
  		from="0 89.0 89.7"
  		to="90 89.0 89.7"
  		begin="0s;engrenagem1.end"
  		dur="0.5s"
 		/>
 	</path>
 <path d="m223 116.49c-0.92906 0.0295-1.9862 0.14969-3.1894 0.37109-19.253 3.5425 5.7167 18.01-10.715 28.65-16.432 10.641-19.417-18.062-30.525-1.9434-11.109 16.119 16.776 8.6911 12.682 27.834-4.0949 19.143-26.501 0.95819-22.959 20.211 3.5425 19.253 18.008-5.7167 28.648 10.715s-18.062 19.417-1.9434 30.525c16.119 11.109 8.6911-16.776 27.834-12.682 19.143 4.0949 0.9582 26.501 20.211 22.959 19.253-3.5425-5.7167-18.01 10.715-28.65 16.432-10.641 19.417 18.062 30.525 1.9434 11.109-16.119-16.776-8.6911-12.682-27.834 4.0948-19.143 26.501-0.95819 22.959-20.211-3.5425-19.253-18.008 5.7167-28.648-10.715-10.641-16.432 18.062-19.417 1.9434-30.525-16.119-11.109-8.6911 16.776-27.834 12.682-17.946-3.8389-3.0855-23.772-17.021-23.33zm8.2852 47.043a15.794 16.464 0 0 1 15.934 16.266l2e-3 0.19727a15.794 16.464 0 0 1-15.746 16.465 15.794 16.464 0 0 1-15.842-16.365 15.794 16.464 0 0 1 15.652-16.562z" fill="#ff0" stroke-width="1.9" style="paint-order:markers stroke fill">
  	  <animateTransform
  		id="engrenagem3"
  		attributeName="transform"
  		type="rotate"
  		from="0 231.5 179.9"
  		to="90 231.5 179.9"
  		begin="engrenagem2.begin"
  		dur="0.5s"
 		/>
  	</path>
  <path d="m116.98 142.05c-0.61064-8e-3 -1.2628 5e-3 -1.9609 0.041-22.341 1.1509 3.8391 20.526-16.346 29.848-20.185 9.3214-19.359-22.524-34.314-6.4512s17.74 11.892 10.291 32.27c-7.4488 20.377-30.178-2.7064-28.986 18.873 1.1915 21.579 21.25-3.7074 30.9 15.789 9.6505 19.496-23.32 18.699-6.6797 33.145 16.64 14.445 12.311-17.136 33.408-9.9414 21.097 7.1948-2.8004 29.149 19.541 27.998 22.341-1.1509-3.8391-20.524 16.346-29.846s19.359 22.524 34.314 6.4512c14.955-16.073-17.74-11.892-10.291-32.27 7.4488-20.377 30.178 2.7064 28.986-18.873-1.1915-21.579-21.25 3.7074-30.9-15.789-9.6505-19.496 23.32-18.699 6.6797-33.145-16.64-14.445-12.311 17.136-33.408 9.9414-20.437-6.97 1.3498-27.793-17.58-28.041zm1.791 53.586a17.309 17.222 0 0 1 17.463 17.014l2e-3 0.20703a17.309 17.222 0 0 1-17.258 17.223 17.309 17.222 0 0 1-17.359-17.119 17.309 17.222 0 0 1 17.152-17.324z" fill="#0019ff" stroke-width="1.8057" style="paint-order:markers stroke fill">
  	<animateTransform
  		id="engrenagem2"
  		attributeName="transform"
  		type="rotate"
  		from="0 118.6 212.6"
  		to="-90 118.6 212.6"
  		begin="engrenagem1.begin"
  		dur="0.5s"
 		/>
  	</path>
 </g>
</svg>
